# xmcd
# 
# Track frame offsets:
#     150
#     24785
#     49850
#     70357
#     94927
#     120087
#     144860
#     171445
#     201642
#     222990
# 
# Disc length: 3288
# 
# Revision: 5
# Processed by: cddbd v1.5.2PL0 Copyright (c) Steve Scherf et al.
# Submitted via: fre:ac v1.0.31
# 
DISCID=8e0cd60a
DTITLE=2002 - Chrysalis
DYEAR=1997
DGENRE=New Age
TTITLE0=To Touch the Sky
TTITLE1=Chrysalis
TTITLE2=A Gift of Life
TTITLE3=Greater Than the Sun
TTITLE4=Spinning the Silk
TTITLE5=Journey Within
TTITLE6=Dream Come True
TTITLE7=Healing Rain
TTITLE8=Cocoon
TTITLE9=Magic Flower
EXTD=
EXTT0=
EXTT1=
EXTT2=
EXTT3=
EXTT4=
EXTT5=
EXTT6=
EXTT7=
EXTT8=
EXTT9=
PLAYORDER=
